<?xml version="1.0" encoding="utf-8"?>
<svg viewBox="0 0 500 500" xmlns="http://www.w3.org/2000/svg">
  <path d="M 392.816 125.965 C 410.265 147.492 420.751 174.872 420.751 204.587 C 420.751 273.468 364.406 329.815 295.515 329.815 C 263.204 329.815 236.781 303.39 236.781 271.071 C 236.781 238.762 263.204 212.338 295.524 212.338 C 311.406 212.454 325.46 218.659 336.705 229.613 L 339.639 226.678 C 328.648 167.87 261.867 140.044 201.285 140.044 C 152.231 140.044 106.7 155.965 69.625 182.885 C 97.385 111.086 167.273 59.835 248.561 59.835 C 301.166 59.922 348.979 81.467 383.659 116.155 L 383.668 116.155 C 386.827 119.315 389.883 122.588 392.816 125.965 Z M 247.311 192.841 C 221.086 209.091 203.535 238.137 203.535 271.09 C 203.535 321.681 244.924 363.07 295.524 363.07 L 295.524 363.062 C 358.658 363.062 413.469 325.647 438.893 271.887 C 428.677 367.775 347.017 443.133 248.552 443.289 L 248.248 443.289 C 179.505 443.124 123.324 386.838 123.324 318.052 C 123.324 249.587 178.985 193.518 247.311 192.841 Z M 182.171 174.248 C 127.925 199.482 90.077 254.569 90.077 318.07 C 90.077 336.915 93.418 355.006 99.521 371.811 C 72.853 338.868 56.829 297.001 56.829 251.558 C 56.829 247.269 56.985 243.016 57.272 238.797 C 88.505 203.223 132.637 179.203 182.171 174.248 Z M 248.404 476.38 C 372.571 476.38 473.226 375.724 473.226 251.558 C 473.226 127.391 372.571 26.736 248.404 26.736 C 124.238 26.736 23.582 127.391 23.582 251.558 C 23.582 375.724 124.238 476.38 248.404 476.38" style="fill-opacity: 1; fill-rule: evenodd; stroke: none; fill: rgb(0, 212, 255);" id="path14"/>
</svg>